<?xml version="1.0" encoding="UTF-8" standalone="no"?>
<!-- Created with Inkscape (http://www.inkscape.org/) -->

<svg
   width="54.567215mm"
   height="79.118164mm"
   viewBox="0 0 54.567215 79.118164"
   version="1.1"
   id="svg1"
   xml:space="preserve"
   xmlns="http://www.w3.org/2000/svg"
   xmlns:svg="http://www.w3.org/2000/svg"><defs
     id="defs1" /><g
     id="layer1"
     style="display:inline;opacity:1"
     transform="translate(27.494082,-61.978651)"><g
       id="g35"><path
         id="rect1"
         style="display:inline;fill:#ffec88;fill-opacity:1;stroke:none;stroke-width:4.19094;stroke-opacity:1"
         d="m -27.494083,77.066614 v 48.201196 l 27.27576684,15.829 L 27.073129,125.40165 V 77.066614 Z" /><path
         id="path8"
         style="display:inline;fill:#698793;fill-opacity:1;stroke:none;stroke-width:3.69645;stroke-opacity:1"
         d="M -23.315927,81.571565 V 122.4661 L -0.23048277,136.59186 22.894973,122.44162 V 81.571565 Z" /></g><g
       id="g20"
       transform="translate(-62.861793)"
       style="display:inline;opacity:1"><path
         id="path21"
         style="display:inline;opacity:1;fill:#698793;fill-opacity:1;stroke:none;stroke-width:4.19094;stroke-opacity:1"
         d="m -17.7431,77.066614 7.430037,5.569169 -6.553605,20.447847 16.93695101,-12.664343 16.94986999,12.704653 -6.612,-20.631301 7.187158,-5.426025 z"
         transform="translate(62.861793)" /><path
         id="path19"
         style="fill:#ffec88;fill-opacity:1;stroke-width:3.96875"
         d="m 72.337613,92.22612 -9.694136,-7.266284 -9.686726,7.243161 3.74803,-11.694536 -9.807385,-7.35117 h 12.163392 l 3.582689,-11.17864 3.582688,11.17864 h 11.95821 l -9.62851,7.269087 z" /></g><g
       id="g1"
       style="display:inline"><path
         id="path5"
         style="display:inline;opacity:1;fill:#ffec88;fill-opacity:1;stroke:none;stroke-width:4.19094;stroke-opacity:1"
         d="m -2.7057749,105.26128 a 19.303879,19.303879 0 0 0 -19.3042481,19.30373 19.303879,19.303879 0 0 0 0.508496,4.18062 l 21.28345552,12.35118 15.14481248,-8.71006 a 19.303879,19.303879 0 0 0 1.671215,-7.82174 19.303879,19.303879 0 0 0 -19.3037309,-19.30373 z" /><path
         id="path2"
         style="display:inline;opacity:1;fill:#698793;fill-opacity:1;stroke:none;stroke-width:3.69645;stroke-opacity:1"
         d="m -3.2349416,106.23176 a 17.804417,17.473686 0 0 0 -17.8045984,17.47335 17.804417,17.473686 0 0 0 0.01189,0.16071 L -0.23047383,136.59166 14.05961,127.84801 a 17.804417,17.473686 0 0 0 0.50953,-4.1429 17.804417,17.473686 0 0 0 -17.8040816,-17.47335 z" /><path
         style="display:inline;opacity:1;fill:#ffec88;fill-opacity:1;stroke-width:3.96875"
         d="m -5.612575,133.31693 c 0,0 0.579027,-3.44277 -1.9182291,-4.36563 -2.2430786,-0.82893 -2.8723969,1.24222 -4.8286449,-2.38125 -1.152919,-2.1355 3.1504248,-6.46288 3.3694241,-7.08128 1.9128456,-0.21148 2.2936932,0.51327 3.1790124,0.92972 0.038438,0.69431 0.4991345,0.58249 0.8598959,0.66146 l 4.23333323,-0.19844 c 0,0 0.66145833,-0.52917 -0.0661458,-1.05833 -0.72760423,-0.52917 -4.16718743,-2.77813 -4.16718743,-2.77813 0,0 -0.3307292,-0.66146 -1.1244792,0.13229 -0.79375,0.79375 -1.2567708,0.66146 -1.2567708,0.66146 0,0 -1.5875,1.78594 -2.1166667,1.05833 -0.5291666,-0.7276 0.4630209,-2.24895 0.396875,-1.4552 -0.066146,0.79375 3.3072917,-3.57188 3.3072917,-3.57188 0,0 2.3151041,-0.26458 2.5135416,-0.7276 0.1984375,-0.46302 0.9921875,-3.3073 0.1984375,-3.43959 -0.79375,-0.13229 -1.1244792,2.05052 -0.9921875,2.4474 0.1322917,0.39687 -0.8598958,0.19844 -0.8598958,0.19844 0,0 0.2346139,-1.54719 0.082682,-1.9017 -0.1488282,-0.34727 1.5709635,-1.2733 1.9678385,-2.66237 0.396875,-1.38906 1.1244791,1.98438 1.3890625,1.7198 0.2645833,-0.26459 0.85989583,-0.52917 0.79375,-2.51355 C -0.7177834,105.00651 -5.2157,106.13099 -5.2157,106.13099 l -7.276042,1.91823 -1.521354,1.52135 c 0,0 1.521354,-0.52917 1.190625,0.19844 -0.330729,0.7276 -3.571875,3.9026 -4.299479,4.56406 -0.727604,0.66146 -0.198437,-1.38906 -0.396875,-1.38906 -0.198437,0 -2.248958,3.70417 -2.248958,3.70417 l -1.521354,4.16718 -0.264584,2.51354 0.06615,0.59532 c 0,0 0.79375,-0.59532 0.79375,-0.39688 0,0.19844 -0.06615,0.8599 -0.06615,0.8599 l -0.396875,0.19844 c 0,0 5.291667,6.94531 5.357813,7.14375 0.06615,0.19843 6.3499997,1.65364 6.6145831,1.78593 0.2645833,0.13229 2.7781249,0.8599 2.7781249,0.8599 z"
         id="path4" /><path
         style="fill:#ffec88;fill-opacity:1;stroke-width:3.96875"
         d="m -1.2800229,136.72344 5.0932291,-8.66511 v -1.38906 c -0.5291667,0.30381 -1.0583333,0.26181 -1.5875,0.19844 -0.033213,0.005 -1.71251917,-2.29829 -2.31510416,-4.63021 -0.08439248,-0.32659 2.86033416,4.30845 3.04270826,4.03489 l 3.0427083,-2.84427 c 0,0 -0.6614613,-0.72759 -1.8520833,-1.05833 -1.1907194,-0.33077 3.7427981,-1.4228 5.55625,3.04271 0.4723647,1.16317 1.7720687,-4.38003 2.0625587,-3.84047 0.232104,0.308 1.904632,2.05765 2.766087,2.05453 1.026852,-0.004 0.330729,5.02708 0.330729,5.02708 l -3.439583,4.69636 -7.8713542,3.37344 z"
         id="path6" /><path
         style="display:inline;opacity:1;fill:#ffec88;fill-opacity:1;stroke-width:3.96875"
         d="m -24.034189,123.36198 c 1.312575,-11.70942 12.28734,-22.59278 24.14872618,-22.23325 9.28469102,0.28143 20.98061582,6.04595 23.21168982,22.10096 0.16293,1.17246 -0.264583,-12.63386 -0.264583,-12.63386 C 23.274782,109.80324 12.572342,96.211099 -0.15600541,97.044664 -7.5448187,97.528549 -16.018843,99.548367 -23.637314,110.59583 c -5.62422,8.15562 -0.396875,12.76615 -0.396875,12.76615 z"
         id="path7" /></g></g></svg>
