<?xml version="1.0" encoding="UTF-8" standalone="no"?>
<!-- Created with Inkscape (http://www.inkscape.org/) -->

<svg
   width="210mm"
   height="297mm"
   viewBox="0 0 210 297"
   version="1.1"
   id="svg1"
   xml:space="preserve"
   inkscape:export-filename="lvl-1.svg"
   inkscape:export-xdpi="300"
   inkscape:export-ydpi="300"
   inkscape:version="1.3.2 (091e20e, 2023-11-25, custom)"
   sodipodi:docname="Main-special.svg"
   xmlns:inkscape="http://www.inkscape.org/namespaces/inkscape"
   xmlns:sodipodi="http://sodipodi.sourceforge.net/DTD/sodipodi-0.dtd"
   xmlns="http://www.w3.org/2000/svg"
   xmlns:svg="http://www.w3.org/2000/svg"><sodipodi:namedview
     id="namedview1"
     pagecolor="#ffffff"
     bordercolor="#000000"
     borderopacity="0.25"
     inkscape:showpageshadow="2"
     inkscape:pageopacity="0.0"
     inkscape:pagecheckerboard="0"
     inkscape:deskcolor="#d1d1d1"
     inkscape:document-units="mm"
     showguides="true"
     inkscape:zoom="2.8284271"
     inkscape:cx="204.35386"
     inkscape:cy="365.39743"
     inkscape:window-width="2560"
     inkscape:window-height="1369"
     inkscape:window-x="-8"
     inkscape:window-y="-8"
     inkscape:window-maximized="1"
     inkscape:current-layer="svg1"><sodipodi:guide
       position="89.160557,219.16355"
       orientation="1,0"
       id="guide3"
       inkscape:locked="false" /><sodipodi:guide
       position="67.336457,202.41146"
       orientation="0,-1"
       id="guide11"
       inkscape:locked="false" /><sodipodi:guide
       position="54.770205,188.48858"
       orientation="0,-1"
       id="guide14"
       inkscape:locked="false" /><sodipodi:guide
       position="55.181523,175.6132"
       orientation="0,-1"
       id="guide15"
       inkscape:locked="false" /><sodipodi:guide
       position="45.396008,183.38272"
       orientation="0,-1"
       id="guide16"
       inkscape:locked="false" /><sodipodi:guide
       position="45.415773,183.36703"
       orientation="0.62181695,0.78316262"
       id="guide22"
       inkscape:locked="false" /><sodipodi:guide
       position="62.643477,185.03123"
       orientation="-0.62181696,0.78316261"
       id="guide24"
       inkscape:label=""
       inkscape:locked="false"
       inkscape:color="rgb(0,134,229)" /><sodipodi:guide
       position="75.162873,179.62525"
       orientation="-0.62181696,0.78316261"
       id="guide25"
       inkscape:label=""
       inkscape:locked="false"
       inkscape:color="rgb(0,134,229)" /><sodipodi:guide
       position="62.643477,185.03123"
       orientation="0.62181696,0.78316261"
       id="guide26"
       inkscape:label=""
       inkscape:locked="false"
       inkscape:color="rgb(0,134,229)" /><sodipodi:guide
       position="62.643477,181.73421"
       orientation="-0.62181696,0.78316261"
       id="guide27"
       inkscape:label=""
       inkscape:locked="false"
       inkscape:color="rgb(0,134,229)" /><sodipodi:guide
       position="81.243255,182.33803"
       orientation="0.62181696,0.78316261"
       id="guide28"
       inkscape:label=""
       inkscape:locked="false"
       inkscape:color="rgb(0,134,229)" /><sodipodi:guide
       position="60.567221,183.38272"
       orientation="0.62181696,0.78316261"
       id="guide29"
       inkscape:label=""
       inkscape:locked="false"
       inkscape:color="rgb(0,134,229)" /></sodipodi:namedview><defs
     id="defs1" /><g
     inkscape:label="Layer 1"
     inkscape:groupmode="layer"
     id="layer1"
     style="display:inline;opacity:1"
     transform="translate(62.861793)"><g
       id="g35"
       inkscape:label="body"
       inkscape:export-filename=".\lvl-5.svg"
       inkscape:export-xdpi="300"
       inkscape:export-ydpi="300"><path
         id="rect1"
         style="display:inline;fill:#ffec88;fill-opacity:1;stroke:none;stroke-width:4.19094;stroke-opacity:1"
         d="m -27.494083,77.066614 v 48.201196 l 27.27576684,15.829 L 27.073129,125.40165 V 77.066614 Z"
         inkscape:export-filename=".\lvl-15.svg"
         inkscape:export-xdpi="300"
         inkscape:export-ydpi="300"
         inkscape:label="Outline"
         sodipodi:nodetypes="cccccc" /><path
         id="path8"
         style="display:inline;fill:#698793;fill-opacity:1;stroke:none;stroke-width:3.69645;stroke-opacity:1"
         d="M -23.315927,81.571565 V 122.4661 L -0.23048277,136.59186 22.894973,122.44162 V 81.571565 Z"
         sodipodi:nodetypes="cccccc"
         inkscape:label="inner"
         inkscape:export-filename=".\lvl-15.svg"
         inkscape:export-xdpi="300"
         inkscape:export-ydpi="300" /></g><g
       id="g20"
       inkscape:label="star"
       transform="translate(-62.861793)"
       style="display:inline;opacity:1"><path
         id="path21"
         style="display:inline;opacity:1;fill:#698793;fill-opacity:1;stroke:none;stroke-width:4.19094;stroke-opacity:1"
         inkscape:label="Outline"
         d="M -17.7431 77.066614 L -10.313063 82.635783 L -16.866668 103.08363 L 0.070283009 90.419287 L 17.020153 103.12394 L 10.408153 82.492639 L 17.595311 77.066614 L -17.7431 77.066614 z "
         transform="translate(62.861793)" /><path
         id="path19"
         style="fill:#ffec88;stroke-width:3.96875;fill-opacity:1"
         inkscape:transform-center-x="-0.28330707"
         inkscape:transform-center-y="-0.56351264"
         d="m 72.337613,92.22612 -9.694136,-7.266284 -9.686726,7.243161 3.74803,-11.694536 -9.807385,-7.35117 h 12.163392 l 3.582689,-11.17864 3.582688,11.17864 11.95821,0 -9.62851,7.269087 z"
         sodipodi:nodetypes="ccccccccccc"
         inkscape:label="center" /></g><g
       id="g1"
       inkscape:label="Planet"
       style="display:inline"><path
         id="path5"
         style="display:inline;opacity:1;fill:#ffec88;fill-opacity:1;stroke:none;stroke-width:4.19094;stroke-opacity:1"
         inkscape:label="Outline"
         d="M -2.7057749 105.26128 A 19.303879 19.303879 0 0 0 -22.010023 124.56501 A 19.303879 19.303879 0 0 0 -21.501527 128.74563 L -0.21807148 141.09681 L 14.926741 132.38675 A 19.303879 19.303879 0 0 0 16.597956 124.56501 A 19.303879 19.303879 0 0 0 -2.7057749 105.26128 z " /><path
         id="path2"
         style="display:inline;opacity:1;fill:#698793;fill-opacity:1;stroke:none;stroke-width:3.69645;stroke-opacity:1"
         inkscape:label="mask-inner"
         d="m -3.2349416,106.23176 a 17.804417,17.473686 0 0 0 -17.8045984,17.47335 17.804417,17.473686 0 0 0 0.01189,0.16071 L -0.23047383,136.59166 14.05961,127.84801 a 17.804417,17.473686 0 0 0 0.50953,-4.1429 17.804417,17.473686 0 0 0 -17.8040816,-17.47335 z" /><path
         style="display:inline;opacity:1;fill:#ffec88;fill-opacity:1;stroke-width:3.96875"
         d="m -5.612575,133.31693 c 0,0 0.579027,-3.44277 -1.9182291,-4.36563 -2.2430786,-0.82893 -2.8723969,1.24222 -4.8286449,-2.38125 -1.152919,-2.1355 3.1504248,-6.46288 3.3694241,-7.08128 1.9128456,-0.21148 2.2936932,0.51327 3.1790124,0.92972 0.038438,0.69431 0.4991345,0.58249 0.8598959,0.66146 l 4.23333323,-0.19844 c 0,0 0.66145833,-0.52917 -0.0661458,-1.05833 -0.72760423,-0.52917 -4.16718743,-2.77813 -4.16718743,-2.77813 0,0 -0.3307292,-0.66146 -1.1244792,0.13229 -0.79375,0.79375 -1.2567708,0.66146 -1.2567708,0.66146 0,0 -1.5875,1.78594 -2.1166667,1.05833 -0.5291666,-0.7276 0.4630209,-2.24895 0.396875,-1.4552 -0.066146,0.79375 3.3072917,-3.57188 3.3072917,-3.57188 0,0 2.3151041,-0.26458 2.5135416,-0.7276 0.1984375,-0.46302 0.9921875,-3.3073 0.1984375,-3.43959 -0.79375,-0.13229 -1.1244792,2.05052 -0.9921875,2.4474 0.1322917,0.39687 -0.8598958,0.19844 -0.8598958,0.19844 0,0 0.2346139,-1.54719 0.082682,-1.9017 -0.1488282,-0.34727 1.5709635,-1.2733 1.9678385,-2.66237 0.396875,-1.38906 1.1244791,1.98438 1.3890625,1.7198 0.2645833,-0.26459 0.85989583,-0.52917 0.79375,-2.51355 C -0.7177834,105.00651 -5.2157,106.13099 -5.2157,106.13099 l -7.276042,1.91823 -1.521354,1.52135 c 0,0 1.521354,-0.52917 1.190625,0.19844 -0.330729,0.7276 -3.571875,3.9026 -4.299479,4.56406 -0.727604,0.66146 -0.198437,-1.38906 -0.396875,-1.38906 -0.198437,0 -2.248958,3.70417 -2.248958,3.70417 l -1.521354,4.16718 -0.264584,2.51354 0.06615,0.59532 c 0,0 0.79375,-0.59532 0.79375,-0.39688 0,0.19844 -0.06615,0.8599 -0.06615,0.8599 l -0.396875,0.19844 c 0,0 5.291667,6.94531 5.357813,7.14375 0.06615,0.19843 6.3499997,1.65364 6.6145831,1.78593 0.2645833,0.13229 2.7781249,0.8599 2.7781249,0.8599 z"
         id="path4"
         sodipodi:nodetypes="cssccccscscsscssscsssscccsssccccsccsscc"
         inkscape:label="left-landmass" /><path
         style="fill:#ffec88;fill-opacity:1;stroke-width:3.96875"
         d="m -1.2800229,136.72344 5.0932291,-8.66511 v -1.38906 c -0.5291667,0.30381 -1.0583333,0.26181 -1.5875,0.19844 -0.033213,0.005 -1.71251917,-2.29829 -2.31510416,-4.63021 -0.08439248,-0.32659 2.86033416,4.30845 3.04270826,4.03489 l 3.0427083,-2.84427 c 0,0 -0.6614613,-0.72759 -1.8520833,-1.05833 -1.1907194,-0.33077 3.7427981,-1.4228 5.55625,3.04271 0.4723647,1.16317 1.7720687,-4.38003 2.0625587,-3.84047 0.232104,0.308 1.904632,2.05765 2.766087,2.05453 1.026852,-0.004 0.330729,5.02708 0.330729,5.02708 l -3.439583,4.69636 -7.8713542,3.37344 z"
         id="path6"
         sodipodi:nodetypes="ccccsccsscscccc"
         inkscape:label="right-landmass" /><path
         style="display:inline;opacity:1;fill:#ffec88;fill-opacity:1;stroke-width:3.96875"
         d="m -24.034189,123.36198 c 1.312575,-11.70942 12.28734,-22.59278 24.14872618,-22.23325 9.28469102,0.28143 20.98061582,6.04595 23.21168982,22.10096 0.16293,1.17246 -0.264583,-12.63386 -0.264583,-12.63386 C 23.274782,109.80324 12.572342,96.211099 -0.15600541,97.044664 -7.5448187,97.528549 -16.018843,99.548367 -23.637314,110.59583 c -5.62422,8.15562 -0.396875,12.76615 -0.396875,12.76615 z"
         id="path7"
         sodipodi:nodetypes="csscssc"
         inkscape:label="shield" /></g></g></svg>
